<svg xmlns="http://www.w3.org/2000/svg" width="346.496" height="310.273" viewBox="0 0 346.496 310.273">
  <path id="code" d="M77.465,251.066a21.656,21.656,0,1,0,32.186-28.982L51.3,157.256l58.351-64.837a21.683,21.683,0,0,0-1.607-30.579v-.011a21.677,21.677,0,0,0-30.579,1.607L6.071,142.771a21.633,21.633,0,0,0,0,28.982ZM270.032,63.436A21.66,21.66,0,0,0,237.846,92.43L296.2,157.256l-58.351,64.838a21.656,21.656,0,0,0,32.186,28.983l71.394-79.335a21.619,21.619,0,0,0,0-28.971ZM211.686,2.744l-.021-.01A21.71,21.71,0,0,0,185.5,18.615L119.949,285.579A21.65,21.65,0,1,0,162,295.9L227.547,28.935A21.679,21.679,0,0,0,211.686,2.744Z" transform="translate(-0.5 -2.121)"/>
</svg>
