<svg xmlns="http://www.w3.org/2000/svg" width="341.601" height="310.273" viewBox="0 0 341.601 310.273">
  <path id="communication" d="M176.307,2.005a11.945,11.945,0,0,0-9.293,4.522l-1.229.936A107.162,107.162,0,0,0,28.439,128.933l-.376.37-16.418,16.4a36.191,36.191,0,0,0,30.76,61.409A36.229,36.229,0,0,0,74.773,234.06a36.205,36.205,0,0,0,33.444,33.418,36.219,36.219,0,0,0,58.106,26.092l8.065,8.057A36.4,36.4,0,0,0,236.4,278.819a36.214,36.214,0,0,0,33.28-33.319,36.225,36.225,0,0,0,32.135-27.735,36.191,36.191,0,0,0,30.218-61.482l-14.523-14.512,2.769-10.834a103.739,103.739,0,0,0-9.025-74.6A102.443,102.443,0,0,0,220.969,2.092H196.1q-1.68-.087-3.378-.087ZM283.239,143.033l11.9,12.37a12.268,12.268,0,0,0,2.46,1.979l16.668,16.656A11.081,11.081,0,0,1,298.586,189.7l-27.87-27.849a12.574,12.574,0,0,0-17.771,0l-.276.277a12.549,12.549,0,0,0,0,17.756L274.4,201.6a11.091,11.091,0,0,1-14.506,16.708,12.56,12.56,0,0,0-17.524,17.683,11.094,11.094,0,0,1-15.638,15.484,12.56,12.56,0,0,0-17.687,17.569,11.259,11.259,0,0,1-16.886,14.828l-7.842-7.835,2.044-2.041a36.185,36.185,0,0,0-22.935-61.677A36.2,36.2,0,0,0,129.986,178.9a36.21,36.21,0,0,0-41.269-33.15,36.225,36.225,0,0,0-36.384-27.018A82,82,0,0,1,138.968,27.9L112.19,48.3c-17.407,13.262-20.652,38.63-7.2,56.3,13.135,17.256,37.314,20.708,54.313,7.756l32.92-25.082h35.212ZM126.5,69.257l54.352-41.411h11.873q1.215,0,2.41.068.328.019.656.019h25.183a78.2,78.2,0,0,1,68.993,41.125,76.629,76.629,0,0,1,7.359,52.362L243.2,65.143a11.9,11.9,0,0,0-8.577-3.712h-46.35a11.792,11.792,0,0,0-7.153,2.441L145,91.394A15.088,15.088,0,0,1,124.047,88.4,13.508,13.508,0,0,1,126.5,69.257Zm26.458,171.276a11.08,11.08,0,0,1,15.636,15.7l-16.418,16.406A11.081,11.081,0,0,1,136.5,256.979Zm-17.769-17.758-16.457,16.445a11.081,11.081,0,0,1-15.929-15.4l.261-.258,16.418-16.4.254-.257a11.08,11.08,0,0,1,15.454,15.877ZM101.7,189.4,85.282,205.8l-.254.257A11.081,11.081,0,0,1,69.614,190.14l16.418-16.4a11.081,11.081,0,0,1,15.929,15.4ZM61.51,162.723l-16.417,16.4a11.081,11.081,0,0,1-15.676-15.664l16.417-16.4A11.081,11.081,0,0,1,61.51,162.723Z" transform="translate(-1.039 -2.005)"/>
</svg>
