<svg xmlns="http://www.w3.org/2000/svg" width="258.561" height="258.561" viewBox="0 0 258.561 258.561">
  <path id="photography" d="M99.667,113.888,161.27,7.167A128.152,128.152,0,0,0,51.575,33.153l47.381,82.028ZM256.614,94.5a129.514,129.514,0,0,0-77.5-81.964L131.794,94.5Zm3.361,12.928H163.144l3.749,6.464,61.6,106.656a128.8,128.8,0,0,0,34.065-87.264A130.883,130.883,0,0,0,259.975,107.424ZM88.485,133.28,38.065,46.016A128.8,128.8,0,0,0,4,133.28a130.882,130.882,0,0,0,2.586,25.856h96.831ZM9.947,172.065a129.514,129.514,0,0,0,77.5,81.964l47.317-81.964Zm145.7,0-50.419,87.329a128.291,128.291,0,0,0,109.759-25.985L167.6,151.38l-11.958,20.685Z" transform="translate(-4 -4)"/>
</svg>
