<?xml version="1.0" encoding="utf-8"?>
<!-- Generator: Adobe Illustrator 19.0.0, SVG Export Plug-In . SVG Version: 6.00 Build 0)  -->
<svg version="1.1" id="Layer_1" xmlns="http://www.w3.org/2000/svg" xmlns:xlink="http://www.w3.org/1999/xlink" x="0px" y="0px"
	 viewBox="0 0 500 500" style="enable-background:new 0 0 500 500;" xml:space="preserve">
<style type="text/css">
	.st0{fill:#4DA9E1;}
</style>
<g id="XMLID_1_">
	<path id="XMLID_2_" class="st0" d="M275.6,283.6c14-1.2,24.3-13.4,23.2-27.4c-1.2-14-13.4-24.3-27.4-23.2
		c-14,1.2-24.3,13.4-23.2,27.4C249.4,274.4,261.6,284.7,275.6,283.6z M305.2,283.2c-5.5,6-12.2,10.8-19.8,13.8l-0.1,0.2
		c5.7,22,14.7,43.1,26.6,62.5c-10.4,5.5-21.8,9.1-33.5,10.6l-1.7,0.2l-2,0.1l-3.9,0.3c-2.4,0-4.8,0.2-7.3,0.1
		c-10-0.2-19.9-1.9-29.3-5c-4.4-1.4-8.8-3.1-12.9-5.2c-3.8-1.8-7.5-3.9-11-6.1c-3-1.9-5.9-4-8.7-6.2c-2.6-1.9-4.6-3.9-6.3-5.4
		c-3.3-3.2-5.2-5.1-5.2-5.1s1.6,2.2,4.5,5.8c1.5,1.8,3.3,4,5.6,6.3c2.5,2.7,5.2,5.2,8,7.6c3.3,2.8,6.9,5.5,10.5,7.9
		c4.1,2.7,8.4,5.2,12.9,7.3c4.8,2.3,9.7,4.3,14.8,5.9c5.3,1.7,10.7,2.9,16.2,3.8c2.7,0.5,5.7,0.7,8.5,1.1l4,0.2l2,0.1l2.3,0
		c5.5,0.1,11-0.3,16.4-1c9.3-1.3,18.4-3.7,27.2-7.2c3.3,4.5,6.8,8.9,10.5,13.2l-0.5,0.3l-4.4,2.7l-0.6,0.4l-0.2,0.1l0,0
		c-0.7,0.4,1-0.5,0.8-0.4l-0.1,0l-0.3,0.2l-1.3,0.7l-2.8,1.4l-1.5,0.7l-0.8,0.4l-0.4,0.2l-0.1,0l0,0c-0.1,0.1,1-0.4,0.5-0.2
		l-0.2,0.1l-3.2,1.4l-3.4,1.5l-0.4,0.2l-0.1,0c0.8-0.3,0.2-0.1,0.3-0.1l-0.1,0.1l-0.2,0.1l-0.9,0.4l-1.8,0.7
		c-16.7,6.4-34.4,9.4-52.3,8.8l-2.3-0.1l-2.6-0.2L249,408c-3.3-0.5-6.5-0.7-9.9-1.5c-13.2-2.4-26-6.7-38-12.9
		c-2.9-1.4-5.7-3-8.3-4.6c-2.7-1.5-5.2-3.3-7.7-5c-4.6-3.2-9.1-6.7-13.3-10.4c-3.6-3.2-7-6.5-10.2-10.1c-3-3.1-5.2-6.1-7.2-8.5
		c-1.9-2.4-3.3-4.4-4.3-5.8l-1.5-2.1l1.3,2.2c0.9,1.4,2,3.6,3.7,6.2c1.7,2.6,3.7,5.8,6.4,9.2c2.9,3.9,6,7.7,9.3,11.3
		c3.9,4.3,8.1,8.3,12.5,12.1c2.4,2,4.8,4.1,7.5,6c2.6,2,5.3,3.9,8.2,5.7c5.9,3.8,12.1,7.2,18.4,10.1c6.6,3,13.5,5.6,20.5,7.6
		c3.5,1.1,7.3,1.8,10.9,2.8l5.2,1l2.6,0.5l2.9,0.4c7.1,1,14.3,1.4,21.5,1.3c12.9-0.1,25.7-1.9,38.1-5.3l1.9-0.5l0.9-0.3l1.3-0.4
		l3.5-1.1l3.4-1.1l3.7-1.4l2.9-1.1l1.4-0.5l0.3-0.1l0.1,0l0.9-0.4l0.2-0.1l0.6-0.3l4.6-2.2l5.8-2.8c3.9,3.7,8,7.4,12.1,10.9
		c0,0,20,20.6,31,12.1c10.3-7.9-1.6-32.9-1.6-32.9C374.6,350.3,344.7,310.9,305.2,283.2z M235.5,249.4l-0.1-0.1
		c-21.7-6.4-44.1-9.5-66.7-9.4c0.7-12.3,3.7-24.3,8.8-35.5l0.7-1.5l0.9-1.7l1.8-3.5c1.3-2.1,2.4-4.2,3.8-6.3
		c5.5-8.4,12.1-15.8,19.8-22.2c3.5-3,7.3-5.8,11.3-8.2c3.6-2.3,7.2-4.3,11-6.1c3.2-1.5,6.5-2.9,9.9-4.1c3-1.2,5.7-1.8,7.9-2.5
		c4.5-1.1,7.1-1.7,7.1-1.7s-2.6,0.2-7.3,0.7c-2.3,0.4-5.1,0.7-8.3,1.4c-3.6,0.7-7.2,1.7-10.7,2.8c-4.2,1.3-8.3,2.9-12.3,4.7
		c-4.5,2-8.8,4.4-13,7c-4.5,2.8-8.8,6-12.9,9.4c-4.2,3.6-8.2,7.5-11.8,11.7c-1.9,2-3.6,4.4-5.4,6.7l-2.3,3.2l-1.1,1.6l-1.2,1.9
		c-2.9,4.6-5.6,9.4-7.8,14.4c-4,9-6.9,18.5-8.6,28.2l-0.1,0.4c-5.5,0.5-11,1.2-16.4,2.1l0-2.9l0-5.1v-0.7V234
		c0.1-0.8-0.1,1.1-0.1,0.9l0-0.1l0-0.4l0.1-1.5l0.3-3.1l0.1-1.6l0.1-0.8l0-0.4l0-0.1l0-0.1c0-0.1-0.2,1-0.1,0.5l0-0.2l0.5-3.5
		l0.5-3.7l0.1-0.5l0-0.1c-0.2,0.8,0,0.2-0.1,0.3l0-0.1l0-0.2l0.2-1l0.4-1.9c3.4-17.5,10.3-34.2,20.2-49l1.3-1.9l1.6-2.1l3.1-4.2
		c2.2-2.5,4.1-5.1,6.5-7.6c9-9.9,19.5-18.5,31-25.4c2.8-1.7,5.5-3.3,8.3-4.6c2.7-1.5,5.6-2.7,8.3-3.9c5.2-2.2,10.5-4.2,15.9-5.7
		c4.6-1.4,9.2-2.5,13.9-3.3c4.2-0.9,7.9-1.2,11-1.6c3.1-0.4,5.5-0.4,7.1-0.6l2.5-0.2l-2.5-0.1c-1.7,0-4.1-0.2-7.2-0.2
		c-3.1,0.1-6.9,0-11.2,0.5c-4.9,0.4-9.7,1-14.5,1.9c-5.7,1.1-11.3,2.5-16.9,4.2c-2.9,1-6,1.9-9,3.2c-3.1,1.1-6.1,2.5-9.2,3.9
		c-6.4,3-12.5,6.4-18.4,10.3c-6.1,4-11.9,8.5-17.3,13.4c-2.8,2.3-5.4,5.2-8.1,7.8l-3.6,3.9l-1.8,1.9l-1.9,2.2
		c-4.6,5.5-8.8,11.4-12.5,17.5c-6.7,11-12,22.8-15.7,35.2l-0.6,1.9l-0.3,0.9l-0.3,1.3l-0.9,3.6l-0.9,3.4c-0.3,1.3-0.5,2.6-0.7,3.8
		l-0.6,3.1l-0.3,1.5l-0.1,0.4l0,0.1l-0.1,1l0,0.2l-0.1,0.7l-0.5,5.1c-0.5,4.7-0.8,7.8-1,9.1c-5.3,1.4-10.6,3.1-15.8,4.9
		c0,0-27.9,6.5-26.3,20.3c1.5,13,29,15.6,29,15.6c47.3,9.8,96.5,4.5,140.6-15.2C234.8,265.7,234.2,257.5,235.5,249.4z M432,234.5
		c-0.6-7.3-1.8-14.5-3.4-21.6c-0.7-3.6-2-7.2-2.9-10.8l-1.7-5l-0.9-2.5l-1.1-2.7c-2.7-6.7-5.8-13.1-9.4-19.4
		c-6.5-11.1-14.3-21.4-23.4-30.6l-1.4-1.4l-0.7-0.7l-1-0.9l-2.7-2.5l-2.6-2.4l-3-2.5l-2.4-2l-1.1-0.9l-0.3-0.2l-0.1-0.1l-0.8-0.6
		l-0.1-0.1l-0.6-0.4l-4.2-2.9l-5.7-3.9c1.5-5.8,2.7-11.7,3.7-17.6c1-5.9,7.8-27.6-5-32.9c-12.1-5-27.7,17.8-27.7,17.8
		c-31.4,36.7-50.6,82.3-54.7,130.4c8,1.7,15.5,5.2,21.9,10.2l0.2,0c15.7-15.5,29-33.1,39.7-52.4c10.2,6.4,19.2,14.7,26.3,24.4l1,1.3
		l1.1,1.6l2.2,3.3c1.2,2.1,2.6,4.1,3.7,6.3c4.7,8.8,8.1,18.2,10.1,28c0.9,4.6,1.6,9.2,1.8,13.8c0.3,4.2,0.3,8.4,0.1,12.6
		c-0.2,3.6-0.6,7.1-1.2,10.7c-0.4,3.2-1.1,5.9-1.6,8.2c-1.1,4.5-1.9,7-1.9,7s1.1-2.4,2.9-6.7c0.8-2.2,1.9-4.8,2.7-8
		c1.1-3.5,2-7.1,2.7-10.7c0.8-4.3,1.4-8.7,1.7-13c0.4-4.9,0.4-9.9,0-14.8c-0.3-5.3-1-10.6-2.1-15.8c-1.1-5.4-2.7-10.8-4.6-16
		c-0.9-2.6-2.2-5.3-3.3-7.9l-1.7-3.6l-0.9-1.8l-1.1-2c-2.6-4.8-5.6-9.4-8.9-13.8c-5.9-7.7-12.7-14.6-20.2-20.7
		c2.3-5.2,4.5-10.6,6.5-16l0.9,0.5l4.5,2.5l0.6,0.3l0.2,0.1l0,0c0.7,0.5-0.9-0.6-0.7-0.5l0.1,0l0.3,0.2l1.2,0.8l2.6,1.7l1.4,0.9
		l0.7,0.5l0.4,0.2l0.1,0.1l0,0c0.1,0.1-0.8-0.7-0.4-0.3l0.2,0.1l2.8,2.1l3,2.2l0.4,0.3l0,0c-0.6-0.5-0.1-0.1-0.3-0.2l0.1,0.1
		l0.2,0.2l0.8,0.6l1.5,1.2c13.8,11.4,25.1,25.4,33.4,41.2l1.1,2.1l1.1,2.4l2.2,4.8c1.2,3.1,2.6,6,3.6,9.3c4.4,12.7,6.9,26,7.5,39.4
		c0.2,3.2,0.2,6.4,0.1,9.5c0,3.1-0.3,6.2-0.5,9.2c-0.5,5.6-1.4,11.2-2.5,16.7c-1,4.7-2.2,9.3-3.7,13.8c-1.2,4.1-2.7,7.5-3.8,10.4
		c-1.2,2.9-2.3,5-2.9,6.5l-1.1,2.3l1.3-2.2c0.8-1.4,2.1-3.5,3.6-6.2c1.4-2.8,3.3-6.1,4.9-10.1c2-4.5,3.7-9,5.2-13.7
		c1.8-5.5,3.2-11.1,4.4-16.8c0.6-3,1.2-6.2,1.5-9.4c0.5-3.2,0.8-6.6,0.9-10C432.7,248.5,432.6,241.5,432,234.5z"/>
</g>
</svg>
