<?xml version="1.0" encoding="utf-8"?>
<!-- Generator: Adobe Illustrator 19.0.0, SVG Export Plug-In . SVG Version: 6.00 Build 0)  -->
<svg version="1.1" id="Layer_1" xmlns="http://www.w3.org/2000/svg" xmlns:xlink="http://www.w3.org/1999/xlink" x="0px" y="0px"
	 viewBox="0 0 500 500" style="enable-background:new 0 0 500 500;" xml:space="preserve">
<style type="text/css">
	.st0{fill:url(#SVGID_1_);}
	.st1{fill:#2165B6;}
</style>
<g id="XMLID_1_">
	
		<linearGradient id="SVGID_1_" gradientUnits="userSpaceOnUse" x1="-0.2061" y1="-2.779578e-002" x2="1.2196" y2="-2.779578e-002" gradientTransform="matrix(136.0596 99.8487 -151.8774 89.4496 194.2193 197.3453)">
		<stop  offset="0" style="stop-color:#C9CBCE"/>
		<stop  offset="1" style="stop-color:#7B7A81"/>
	</linearGradient>
	<path class="st0" d="M280.4,325.4c-76,0-140.7-38.1-140.7-83.7s57-83.6,133.1-83.6c96,0,140.5,36.9,140.5,82.6
		C413.4,286.3,364.3,325.4,280.4,325.4 M250,112.5c-98.9,0-182.5,53.2-182.5,121.7c0,64.6,83.1,118.3,182,118.3
		c98.9,0,183-49.9,183-118.3S348.9,112.5,250,112.5"/>
	<path id="XMLID_2_" class="st1" d="M218.6,186.4v201.2h60.8v-78.2c15.2,0,24.3-3.3,34.2,14.9c15.2,26.1,34.2,63.3,34.2,63.3H420
		c0,0-45.6-74.5-49.4-78.2c-7-7.5-15.2-7.5-26.6-11.2c22.8-3.7,44.1-13.2,51.4-33.5c6.5-18.6,5.7-42.3-8.1-58.2
		c-12-12.6-24.3-20.1-54.7-20.1H218.6z M279.4,228.3h39.9c9.5,0,17.1,9.3,17.1,18.6c0,9.3-7.6,18.6-17.1,18.6h-39.9V228.3z"/>
</g>
</svg>
