<?xml version="1.0" encoding="utf-8"?>
<!-- Generator: Adobe Illustrator 19.0.0, SVG Export Plug-In . SVG Version: 6.00 Build 0)  -->
<svg version="1.1" id="Layer_1" xmlns="http://www.w3.org/2000/svg" xmlns:xlink="http://www.w3.org/1999/xlink" x="0px" y="0px"
	 viewBox="0 0 500 500" style="enable-background:new 0 0 500 500;" xml:space="preserve">
<style type="text/css">
	.st0{fill:#0A0B09;}
	.st1{fill:#D7252C;}
</style>
<g id="XMLID_1_">
	<path id="XMLID_2_" class="st0" d="M396.1,223.5v-11.7c0-12.8-10.5-23.4-23.4-23.4H127.3c-12.8,0-23.4,10.5-23.4,23.4v11.7
		c-5.4,3.3-9.1,9.3-9.1,16.1v31.4c0,6.8,3.7,12.8,9.1,16.1v12.2c0,12.8,10.5,23.4,23.4,23.4h245.5c12.9,0,23.4-10.5,23.4-23.4v-12.2
		c5.4-3.3,9.1-9.3,9.1-16.1v-31.4C405.2,232.8,401.5,226.9,396.1,223.5z M250.9,67.5c-66.2,0-120.7,49.4-128.9,113.4h257.8
		C371.7,116.9,317.1,67.5,250.9,67.5z M211.2,355.1h76.7l7.8,9.1l11.8-10.2L295,339.6h-91L191.5,354l11.8,10.2L211.2,355.1z
		 M344.1,327.5v49.7c0,13.7-11.2,24.8-24.8,24.8h-13.5v0c-3,0-5.6-1.4-7.3-3.5h0l-16.2-20.6l0,0c-1.7-2.2-4.4-3.7-7.4-3.7l-0.1,0
		l-0.1,0h-46.8l-0.1,0l-0.1,0c-2.8,0-5.3,1.3-7,3.2l0,0l-16.5,21.1h0c-1.7,2.1-4.4,3.5-7.3,3.5v0h-13.5c-13.7,0-24.8-11.2-24.8-24.8
		v-49.7h-30.4v49.8c0,30.4,24.8,55.2,55.2,55.2h136c30.4,0,55.2-24.8,55.2-55.2v-49.8H344.1z"/>
	<path id="XMLID_7_" class="st1" d="M350.4,270.7H149.6c-9.5,0-17.2-7.8-17.2-17.2s7.8-17.2,17.2-17.2h200.7
		c9.5,0,17.2,7.8,17.2,17.2S359.9,270.7,350.4,270.7"/>
</g>
</svg>
