<?xml version="1.0" encoding="utf-8"?>
<!-- Generator: Adobe Illustrator 19.0.0, SVG Export Plug-In . SVG Version: 6.00 Build 0)  -->
<svg version="1.1" id="Layer_1" xmlns="http://www.w3.org/2000/svg" xmlns:xlink="http://www.w3.org/1999/xlink" x="0px" y="0px"
	 viewBox="0 0 500 500" style="enable-background:new 0 0 500 500;" xml:space="preserve">
<style type="text/css">
	.st0{fill:#FFD2A6;}
	.st1{fill:#FFE4C9;}
	.st2{fill:#FFC58B;}
	.st3{fill:#FFBC78;}
	.st4{fill:#FFEDDB;}
	.st5{fill:#FFD8B0;}
	.st6{fill:#FFBF7F;}
	.st7{fill:#FFCA94;}
	.st8{fill:#FFB770;}
	.st9{fill:#FFF6ED;}
	.st10{fill:#FFCE9D;}
	.st11{fill:#FFE6CD;}
	.st12{fill:#FFD3A6;}
	.st13{fill:#FFBC7A;}
	.st14{fill:#FFB66C;}
	.st15{fill:#FFC68D;}
	.st16{fill:#FFEEDD;}
	.st17{fill:#FFDFBF;}
	.st18{fill:#FFC387;}
	.st19{fill:#FFBA75;}
	.st20{fill:#FFB469;}
	.st21{fill:#FFB366;}
	.st22{fill:#FFC386;}
	.st23{fill:#FFC081;}
	.st24{fill:#FFB871;}
	.st25{fill:#FFD9B3;}
	.st26{fill:#FFE0C0;}
	.st27{fill:#FFD4A8;}
	.st28{fill:#FFBD7B;}
	.st29{fill:#FFB66D;}
	.st30{fill:#FFB163;}
</style>
<g id="XMLID_1_">
	<path id="XMLID_2_" class="st0" d="M69.7,387c2.7,10.4,8.1,20.3,16.2,28.4c12.2,12.3,28.2,18.5,44.1,18.5c9.7,0,19.4-2.3,28.2-6.8
		c0,0-0.1,0-0.1,0c-8.5,4.2-17.9,6.5-27.6,6.5c-5.3,0-10.6-0.7-15.9-2.1c-9.9-2.6-18.5-7.4-25.6-13.7c-1-0.9-2.1-1.9-3.1-2.9
		C78.3,407.5,72.7,398,69.7,387 M421.6,76.8c-5.5,0-73.8,49.2-147.6,104.2c-8.9,23.5-18.6,48.5-28.2,73.1
		c24.1-9.6,48.7-19.2,71.8-28.1c55.9-76.4,106.1-147.1,104.2-149C421.8,76.8,421.7,76.8,421.6,76.8"/>
	<path id="XMLID_5_" class="st1" d="M431.6,186c-7.2,0-55.9,17.6-113.9,39.9c-14.8,20.3-30.1,40.9-44.8,60.8
		c20.5-2.5,41-4.8,59.9-6.9c54.8-48.8,101-91.4,99.7-93.6C432.4,186.1,432.1,186,431.6,186"/>
	<path id="XMLID_6_" class="st2" d="M317.7,225.9c-23.1,8.9-47.7,18.5-71.8,28.1c-5.1,12.9-10.1,25.6-15,37.9
		c13.8-1.8,27.9-3.5,42-5.2C287.6,266.8,302.8,246.1,317.7,225.9"/>
	<path id="XMLID_7_" class="st1" d="M313,66.1c-3.2,0-45,46-92.7,100.4c-2,18.9-4.3,39.4-6.8,59.9c19.8-15,40.3-30.4,60.5-45.4
		c23.5-62.1,41.6-113.3,39.1-114.8C313,66.1,313,66.1,313,66.1"/>
	<path id="XMLID_8_" class="st2" d="M274,181c-20.1,15-40.7,30.5-60.5,45.4c-1.7,14.3-3.5,28.7-5.2,42.7c12.2-4.9,24.8-10,37.6-15.1
		C255.4,229.5,265.1,204.4,274,181"/>
	<path id="XMLID_9_" class="st3" d="M245.8,254c-12.8,5.1-25.4,10.2-37.6,15.1c-1.1,9-2.3,17.8-3.4,26.3c8.4-1.1,17.1-2.3,26-3.4
		C235.7,279.7,240.8,266.9,245.8,254"/>
	<path id="XMLID_10_" class="st4" d="M418.5,272.7c-14,0-46.6,2.9-85.7,7.1c-19.3,17.2-39.6,35.1-59.4,52.2
		c14.8,3.2,28.9,6.4,41.7,9.4c59.5-34,111.4-65.3,110.7-67.8C425.6,273,423,272.7,418.5,272.7"/>
	<path id="XMLID_11_" class="st5" d="M332.8,279.8c-18.9,2-39.4,4.4-59.9,6.9c-10,13.5-19.9,26.7-29.2,39.2c10,2,20,4.1,29.7,6.2
		C293.1,314.9,313.5,297,332.8,279.8"/>
	<path id="XMLID_12_" class="st6" d="M272.8,286.7c-14.1,1.7-28.3,3.5-42,5.2c-4,10.1-8,19.9-11.7,29.2c8.1,1.5,16.3,3.1,24.5,4.7
		C253,313.4,262.8,300.3,272.8,286.7"/>
	<path id="XMLID_13_" class="st7" d="M85.8,414.9c1,1,2,1.9,3.1,2.9c-0.2-0.2-0.4-0.4-0.6-0.5C87.5,416.5,86.6,415.7,85.8,414.9"/>
	<path id="XMLID_14_" class="st8" d="M230.8,292c-8.9,1.1-17.6,2.3-26,3.4c-1,7.8-2.1,15.4-3.1,22.7c5.7,1,11.5,2,17.3,3.1
		C222.9,311.8,226.8,302.1,230.8,292"/>
	<path id="XMLID_15_" class="st9" d="M315.1,341.5c-54.3,31-115,64.3-148.2,80.2c-2.2,1.6-4.5,3.1-6.9,4.4c-0.6,0.3-1.1,0.6-1.7,0.9
		c54.5-15.6,215.6-63.6,214.2-68.6C371.8,356.2,348.1,349.4,315.1,341.5"/>
	<path id="XMLID_16_" class="st10" d="M159.9,426.1c-0.6,0.3-1.2,0.7-1.9,1c0,0,0.1,0,0.1,0C158.8,426.7,159.3,426.4,159.9,426.1"/>
	<path id="XMLID_17_" class="st11" d="M273.4,332.1c-40.3,35-77.9,66.9-98.7,82.9c-2.4,2.5-5.1,4.7-7.8,6.7
		c33.3-15.9,94-49.2,148.2-80.2C302.3,338.5,288.1,335.2,273.4,332.1"/>
	<path id="XMLID_18_" class="st12" d="M243.6,325.9c-26.3,35-48.7,64.3-61.3,79.7c-2.2,3.4-4.8,6.5-7.6,9.4
		c20.7-16,58.4-47.9,98.7-82.9C263.6,330,253.6,327.9,243.6,325.9"/>
	<path id="XMLID_19_" class="st13" d="M219.1,321.2c-12.7,31.4-23.7,57.4-30.3,71.6c-1.7,4.6-3.9,8.9-6.5,12.9
		c12.6-15.4,35.1-44.7,61.3-79.7C235.4,324.3,227.2,322.7,219.1,321.2"/>
	<path id="XMLID_20_" class="st14" d="M201.8,318c-4.7,33.9-8.9,60.3-11.3,69.1l0,0c0,0.1,0,0.2-0.1,0.2c-0.5,1.8-1,3.6-1.7,5.3
		c6.6-14.1,17.5-40.1,30.3-71.6C213.3,320.1,207.5,319,201.8,318"/>
	<path id="XMLID_21_" class="st9" d="M73.8,343c-6.3,13-8.2,28.3-4.3,43.4c0.1,0.2,0.1,0.4,0.2,0.6c-0.9-3.4-1.5-6.9-1.8-10.4
		c-1.1-11.7,1.1-23.2,5.9-33.4C73.8,343.1,73.8,343.1,73.8,343"/>
	<path id="XMLID_22_" class="st10" d="M67.9,376.6c0.3,3.5,0.9,7,1.8,10.4c3,11,8.7,20.5,16.2,27.9c-7.6-7.6-13.3-17.2-16.2-28.4
		C68.8,383.2,68.2,379.9,67.9,376.6"/>
	<path id="XMLID_23_" class="st11" d="M73.8,343.2c-4.9,10.2-7.1,21.7-5.9,33.4c-0.9-10.8,0.9-21.9,5.5-31.9
		C73.5,344.2,73.7,343.7,73.8,343.2"/>
	<path id="XMLID_24_" class="st15" d="M73.4,344.7c-4.6,10-6.4,21-5.5,31.9c0.3,3.3,0.9,6.6,1.8,9.9c2.9,11.2,8.6,20.8,16.2,28.4
		c0.8,0.8,1.6,1.6,2.5,2.3c-8.3-7.7-14.4-17.5-17.5-28.4c-4.2-13.7-3.7-28.8,2.2-42.6C73.1,345.7,73.2,345.2,73.4,344.7"/>
	<path id="XMLID_25_" class="st13" d="M72.9,346.3c-5.9,13.9-6.4,29-2.2,42.6c-1.6-5.6-2.5-11.4-2.5-17.3c0-0.2,0-0.4,0-0.6
		c-0.1-8,1.4-16,4.3-23.4C72.7,347.1,72.8,346.7,72.9,346.3"/>
	<path id="XMLID_26_" class="st14" d="M72.6,347.5c-2.9,7.4-4.3,15.4-4.3,23.4c0-5.1,0.7-10.4,2.1-15.6
		C71,353.3,71.7,350.7,72.6,347.5"/>
	<path id="XMLID_27_" class="st9" d="M142,126.4c-5.4,0-53.1,162.7-68.1,216.6c1.7-3.4,3.6-6.7,5.9-9.8
		c15.9-33.6,48.7-94.4,79.3-148.8C151.2,151.1,144.4,127.1,142,126.4C142,126.4,142,126.4,142,126.4"/>
	<path id="XMLID_28_" class="st16" d="M79.7,333.2c-2.3,3.1-4.2,6.4-5.9,9.8c0,0.1,0,0.1,0,0.2C75.5,339.7,77.4,336.4,79.7,333.2
		C79.7,333.2,79.7,333.2,79.7,333.2"/>
	<path id="XMLID_29_" class="st17" d="M79.7,333.3c-2.3,3.1-4.2,6.4-5.9,9.9c-0.1,0.5-0.3,1-0.4,1.5c1.5-3.3,3.3-6.4,5.4-9.4
		C79.1,334.6,79.4,333.9,79.7,333.3"/>
	<path id="XMLID_30_" class="st18" d="M78.8,335.3c-2.1,3-3.9,6.2-5.4,9.4c-0.1,0.5-0.3,1.1-0.4,1.6c1-2.2,2-4.5,3.3-6.6
		c0.2-0.3,0.4-0.7,0.6-1c0.5-0.8,1-1.7,1.5-2.5C78.5,335.8,78.6,335.5,78.8,335.3"/>
	<path id="XMLID_31_" class="st19" d="M78.4,336.1c-0.5,0.8-1,1.6-1.5,2.5c0.4-0.6,0.8-1.3,1.3-2C78.2,336.4,78.3,336.3,78.4,336.1"
		/>
	<path id="XMLID_32_" class="st19" d="M68.3,370.9c0,0.2,0,0.4,0,0.6C68.3,371.4,68.3,371.2,68.3,370.9
		C68.3,371,68.3,370.9,68.3,370.9 M76.9,338.6c-0.2,0.4-0.4,0.7-0.6,1c-1.2,2.2-2.3,4.4-3.3,6.6c-0.1,0.4-0.2,0.8-0.3,1.2
		C73.8,344.4,75.2,341.4,76.9,338.6"/>
	<path id="XMLID_35_" class="st20" d="M190.5,387.2L190.5,387.2c0,0.1,0,0.2-0.1,0.2C190.5,387.4,190.5,387.3,190.5,387.2
		L190.5,387.2 M78.1,336.6c-0.5,0.7-0.9,1.4-1.3,2c-1.7,2.9-3.1,5.8-4.3,8.9c-0.9,3.2-1.6,5.8-2.2,7.9c-1.4,5.2-2.1,10.4-2.1,15.6
		c0,0,0,0,0,0.1c0.1-5.1,0.7-10.3,2.1-15.5C71.5,351.7,74.2,345.2,78.1,336.6"/>
	<path id="XMLID_38_" class="st4" d="M226.4,72.8c-2.9,0-33.7,51.9-67.3,111.6c3,12.8,6.2,27.1,9.4,41.9
		c17-19.9,34.8-40.4,51.8-59.8C225.8,114.4,229.1,73.6,226.4,72.8C226.4,72.8,226.4,72.8,226.4,72.8"/>
	<path id="XMLID_39_" class="st5" d="M220.3,166.5c-17,19.4-34.8,39.9-51.8,59.8c2.1,9.7,4.1,19.7,6.1,29.8
		c12.4-9.5,25.5-19.5,38.9-29.7C216,205.9,218.3,185.4,220.3,166.5"/>
	<path id="XMLID_40_" class="st6" d="M213.5,226.4c-13.5,10.2-26.6,20.2-38.9,29.7c1.6,8.3,3.2,16.7,4.7,24.9
		c9.2-3.8,18.9-7.8,29-11.8C210,255.1,211.8,240.7,213.5,226.4"/>
	<path id="XMLID_41_" class="st8" d="M208.3,269.1c-10,4.1-19.7,8-29,11.8c1.1,5.9,2.1,11.8,3.1,17.5c7.2-1,14.7-2,22.4-3.1
		C206,286.9,207.1,278.1,208.3,269.1"/>
	<path id="XMLID_42_" class="st20" d="M204.9,295.4c-7.8,1-15.3,2.1-22.4,3.1c1,5.7,1.9,11.3,2.8,16.8c5.4,0.9,11,1.8,16.6,2.8
		C202.8,310.8,203.8,303.2,204.9,295.4"/>
	<path id="XMLID_43_" class="st21" d="M185.2,315.3c5.3,33.9,8.1,61.8,5.4,71.9c2.4-8.9,6.6-35.2,11.3-69.1
		C196.1,317.1,190.6,316.1,185.2,315.3"/>
	<path id="XMLID_44_" class="st7" d="M88.9,417.8c7.1,6.4,15.8,11.2,25.6,13.7c5.3,1.4,10.7,2.1,15.9,2.1c9.7,0,19.1-2.3,27.6-6.5
		c-0.1,0-0.2,0.1-0.4,0.1c-8.3,4.1-17.6,6.3-27.2,6.3c-5.3,0-10.7-0.7-16-2.1c-6.7-1.7-12.8-4.5-18.2-8
		C93.7,421.7,91.2,419.8,88.9,417.8"/>
	<path id="XMLID_45_" class="st22" d="M88.3,417.2c0.2,0.2,0.4,0.4,0.6,0.5c2.3,2,4.8,3.9,7.4,5.6c-0.9-0.6-1.7-1.2-2.6-1.8
		C91.8,420.2,90,418.8,88.3,417.2"/>
	<path id="XMLID_46_" class="st23" d="M70.8,388.9c3.1,10.9,9.2,20.7,17.5,28.4c1.7,1.5,3.5,3,5.4,4.3
		c-10.4-7.6-18.1-18.2-22.2-30.3C71.3,390.5,71,389.7,70.8,388.9"/>
	<path id="XMLID_47_" class="st24" d="M68.3,371.6c0,5.9,0.8,11.8,2.5,17.3c0.2,0.8,0.5,1.6,0.8,2.4C69.5,385,68.3,378.4,68.3,371.6
		"/>
	<path id="XMLID_48_" class="st11" d="M166.8,421.7c-0.1,0-0.1,0.1-0.2,0.1c-1.1,0.8-2.3,1.6-3.4,2.3c-1.1,0.7-2.2,1.3-3.3,2
		C162.3,424.8,164.6,423.4,166.8,421.7"/>
	<path id="XMLID_49_" class="st15" d="M163.2,424.1c-1.8,1.1-3.6,2.1-5.5,3c0.1,0,0.2-0.1,0.4-0.1c0.6-0.3,1.2-0.6,1.9-1
		C161,425.5,162.1,424.8,163.2,424.1"/>
	<path id="XMLID_50_" class="st25" d="M174.7,415c0,0-0.1,0.1-0.1,0.1c-2.5,2.5-5.1,4.7-7.9,6.7c0.1,0,0.1-0.1,0.2-0.1
		C169.6,419.7,172.3,417.5,174.7,415"/>
	<path id="XMLID_51_" class="st7" d="M182.3,405.6C182.3,405.7,182.2,405.7,182.3,405.6c-2.3,3.5-4.9,6.6-7.7,9.5
		c0,0,0.1-0.1,0.1-0.1C177.5,412.2,180,409,182.3,405.6"/>
	<path id="XMLID_52_" class="st24" d="M188.8,392.7L188.8,392.7c-1.7,4.7-3.9,9-6.6,13c0,0,0,0,0.1-0.1
		C184.9,401.7,187.1,397.3,188.8,392.7"/>
	<path id="XMLID_53_" class="st21" d="M190.5,387.4c-0.5,1.8-1.1,3.6-1.7,5.3l0,0C189.4,391,190,389.2,190.5,387.4"/>
	<path id="XMLID_54_" class="st11" d="M159.1,184.4c-30.6,54.4-63.4,115.1-79.3,148.8c1.9-2.5,3.9-5,6.1-7.2
		c15.9-20.9,47.7-59,82.6-99.7C165.3,211.5,162.1,197.3,159.1,184.4"/>
	<path id="XMLID_55_" class="st12" d="M168.5,226.3c-34.9,40.7-66.6,78.8-82.6,99.7c3.2-3.3,6.8-6.2,10.8-8.7
		c15.5-12.9,44-35.2,77.9-61.2C172.6,246.1,170.5,236.1,168.5,226.3"/>
	<path id="XMLID_56_" class="st13" d="M174.6,256.1c-33.9,26-62.4,48.3-77.9,61.2c3.6-2.3,7.4-4.2,11.4-5.7
		c14-6.6,39.9-17.7,71.2-30.6C177.8,272.7,176.2,264.4,174.6,256.1"/>
	<path id="XMLID_57_" class="st14" d="M179.3,280.9c-31.3,12.9-57.2,24-71.2,30.6c1.8-0.7,3.6-1.3,5.5-1.8l0,0
		c8.8-2.4,35.1-6.6,68.8-11.3C181.4,292.7,180.4,286.9,179.3,280.9"/>
	<path id="XMLID_58_" class="st21" d="M182.4,298.5c-33.8,4.7-60,8.9-68.8,11.3c2.7-0.7,6.6-1.1,11.6-1.1c13.7,0,35.2,2.6,60,6.5
		C184.3,309.8,183.4,304.2,182.4,298.5"/>
	<path id="XMLID_59_" class="st15" d="M96.3,423.3c5.5,3.6,11.6,6.3,18.2,8c5.3,1.4,10.7,2.1,16,2.1c9.5,0,18.8-2.2,27.2-6.3
		c-1.1,0.3-2.2,0.6-3.3,0.9c-7.8,3.4-16,5-24.1,5c-1.9,0-3.8-0.1-5.6-0.3C114.5,432.1,104.8,428.8,96.3,423.3"/>
	<path id="XMLID_60_" class="st13" d="M154.4,428.1c-0.2,0.1-0.4,0.1-0.6,0.2c-5.7,2.3-11.8,3.8-18,4.4c-2.2,0.3-4.5,0.4-6.7,0.4
		c-1.5,0-3-0.1-4.5-0.2c1.9,0.2,3.7,0.3,5.6,0.3C138.5,433.1,146.6,431.5,154.4,428.1"/>
	<path id="XMLID_61_" class="st14" d="M153.9,428.3c-1.9,0.5-3.7,1-5.2,1.5c-1.3,0.5-2.4,0.8-3.4,1.1c-3.1,0.9-6.3,1.4-9.4,1.8
		C142.1,432.1,148.1,430.6,153.9,428.3"/>
	<path id="XMLID_62_" class="st23" d="M93.7,421.6c0.8,0.6,1.7,1.2,2.6,1.8c8.5,5.4,18.2,8.7,28.4,9.5c-2-0.2-4-0.5-6-0.9
		C109.7,430.4,101.2,426.8,93.7,421.6"/>
	<path id="XMLID_63_" class="st24" d="M118.7,432c2,0.4,4,0.7,6,0.9c1.5,0.1,3,0.2,4.5,0.2c2.2,0,4.5-0.1,6.7-0.4
		c-1.8,0.2-3.7,0.2-5.5,0.2c-0.4,0-0.7,0-1.1,0c-0.1,0-0.1,0-0.2,0C125.6,432.9,122.1,432.6,118.7,432"/>
	<path id="XMLID_64_" class="st21" d="M148.7,429.7c-1.3,0.4-2.5,0.7-3.5,1c-5.3,1.4-10.7,2.2-15.9,2.2c0.4,0,0.7,0,1.1,0
		c1.9,0,3.7-0.1,5.5-0.2c3.1-0.3,6.3-0.9,9.4-1.8C146.2,430.6,147.4,430.2,148.7,429.7"/>
	<path id="XMLID_65_" class="st26" d="M166.6,421.9c-0.1,0.1-0.2,0.1-0.4,0.2c-1,0.7-2,1.4-3.1,2.1
		C164.4,423.4,165.5,422.7,166.6,421.9 M85.9,326c-2.2,2.2-4.3,4.7-6.1,7.2c0,0,0,0,0,0.1C81.6,330.7,83.6,328.3,85.9,326
		C85.9,326,85.9,326,85.9,326"/>
	<path id="XMLID_68_" class="st22" d="M166.3,422c-0.9,0.4-1.8,0.9-2.7,1.3c-1.5,0.9-3,1.8-4.5,2.6c-1.5,0.8-3,1.5-4.6,2.2
		c1-0.3,2.1-0.6,3.3-0.9c1.9-0.9,3.7-1.9,5.5-3C164.2,423.5,165.3,422.8,166.3,422"/>
	<path id="XMLID_69_" class="st19" d="M159,425.9c-1.7,0.9-3.4,1.7-5.1,2.4c0.2-0.1,0.4-0.1,0.6-0.2
		C156,427.4,157.5,426.7,159,425.9"/>
	<path id="XMLID_70_" class="st10" d="M96.7,317.3c-3.9,2.5-7.5,5.4-10.8,8.7c0,0,0,0,0,0C89.1,322.7,92.7,319.8,96.7,317.3
		L96.7,317.3"/>
	<path id="XMLID_71_" class="st19" d="M108.1,311.6c-4.1,1.5-7.9,3.4-11.4,5.7l0,0C100.2,315,104,313.1,108.1,311.6L108.1,311.6"/>
	<path id="XMLID_72_" class="st20" d="M113.6,309.8L113.6,309.8c-1.9,0.5-3.7,1.1-5.5,1.8l0,0C109.9,310.9,111.7,310.3,113.6,309.8
		L113.6,309.8"/>
	<path id="XMLID_73_" class="st19" d="M163.5,423.3c-0.2,0.1-0.4,0.2-0.6,0.3c-0.7,0.5-1.3,0.9-1.9,1.2c-0.7,0.4-1.3,0.7-2,1.1
		C160.6,425.1,162.1,424.2,163.5,423.3"/>
	<path id="XMLID_74_" class="st20" d="M162.9,423.6c-5.9,2.7-10.7,4.8-14.2,6.1c1.5-0.4,3.3-0.9,5.2-1.5c1.7-0.7,3.5-1.5,5.1-2.4
		c0.7-0.4,1.3-0.7,2-1.1C161.6,424.5,162.2,424.1,162.9,423.6"/>
	<path id="XMLID_75_" class="st27" d="M174.5,415.1c-0.6,0.4-1.1,0.8-1.6,1.3c-2.1,2.1-4.3,4-6.6,5.7c0.1-0.1,0.2-0.1,0.4-0.2
		C169.4,419.8,172.1,417.6,174.5,415.1"/>
	<path id="XMLID_76_" class="st28" d="M172.9,416.4c-0.7,0.5-1.4,1-2,1.5c-2.3,2-4.8,3.8-7.3,5.4c0.9-0.4,1.8-0.8,2.7-1.3
		C168.6,420.3,170.8,418.4,172.9,416.4"/>
	<path id="XMLID_77_" class="st15" d="M182.2,405.7c-3.9,4.8-6.9,8.3-8.7,10.1c-0.2,0.2-0.4,0.4-0.6,0.6c0.5-0.4,1.1-0.8,1.6-1.3
		C177.4,412.3,180,409.1,182.2,405.7"/>
	<path id="XMLID_78_" class="st29" d="M188.8,392.7c-1.9,4.1-3.4,7.2-4.6,9.1c-3.6,6.2-8.2,11.6-13.4,16.1c0.7-0.5,1.3-1,2-1.5
		c0.2-0.2,0.4-0.4,0.6-0.6c1.8-1.8,4.8-5.3,8.7-10.1C184.9,401.7,187.1,397.4,188.8,392.7"/>
	<path id="XMLID_79_" class="st27" d="M85.9,326c-2.2,2.3-4.3,4.7-6.1,7.2c-0.3,0.7-0.6,1.3-0.9,2c1.2-1.7,2.4-3.3,3.8-4.9
		c0.1-0.2,0.3-0.3,0.4-0.5C83.9,328.6,84.8,327.4,85.9,326"/>
	<path id="XMLID_80_" class="st28" d="M71.6,391.3c4.1,12.1,11.8,22.7,22.2,30.3c7.4,5.3,16,8.9,25,10.4
		c-9.9-1.9-19.2-6.2-27.2-12.7C82.2,411.8,75.4,402.1,71.6,391.3 M82.6,330.4c-1.4,1.6-2.6,3.2-3.8,4.9c-0.1,0.3-0.3,0.6-0.4,0.8
		C79.7,334.1,81,332.2,82.6,330.4"/>
	<path id="XMLID_83_" class="st15" d="M83,329.9c-0.1,0.2-0.3,0.3-0.4,0.5c0.1-0.1,0.2-0.2,0.3-0.4C82.9,329.9,82.9,329.9,83,329.9"
		/>
	<path id="XMLID_84_" class="st29" d="M91.6,419.3c8,6.5,17.3,10.8,27.2,12.7c3.4,0.6,6.8,0.9,10.3,0.9c0.1,0,0.1,0,0.2,0
		c-10.2-0.2-20.5-2.9-29.9-8.3C96.6,423,94,421.2,91.6,419.3 M82.9,330c-0.1,0.1-0.2,0.2-0.3,0.4c-1.5,1.8-2.9,3.8-4.2,5.7
		c-0.1,0.2-0.2,0.3-0.2,0.5C79.4,334.8,81,332.6,82.9,330"/>
	<path id="XMLID_87_" class="st15" d="M96.7,317.3c-3.9,2.5-7.6,5.5-10.8,8.7c-1,1.3-2,2.6-2.9,3.8c3.2-3.8,6.9-7.3,11-10.3
		C94.8,318.8,95.7,318.1,96.7,317.3"/>
	<path id="XMLID_88_" class="st29" d="M170.9,417.9c-3.2,2.4-5.9,4.4-8,5.7c0.2-0.1,0.4-0.2,0.6-0.3
		C166.1,421.7,168.6,419.9,170.9,417.9 M68.3,371c0,0.2,0,0.4,0,0.6c0,6.8,1.1,13.5,3.2,19.7c3.8,10.8,10.6,20.6,20,28
		c-5.9-4.8-11-10.7-14.9-17.7C71.1,391.9,68.4,381.4,68.3,371 M108.1,311.6c-4.1,1.5-7.9,3.4-11.4,5.7c-0.9,0.8-1.8,1.5-2.7,2.3
		c1.7-1.2,3.4-2.4,5.2-3.4C101.1,315,104.1,313.5,108.1,311.6"/>
	<path id="XMLID_92_" class="st13" d="M94,319.6c-4.1,3-7.8,6.5-11,10.3c0,0-0.1,0.1-0.1,0.1c0.9-1,1.8-2,2.8-3
		C87.2,325.4,90.1,322.9,94,319.6"/>
	<path id="XMLID_93_" class="st30" d="M125.2,308.7c-5,0-8.9,0.3-11.6,1.1l0,0c-1.9,0.5-3.7,1.1-5.5,1.8c-4,1.9-7,3.4-8.9,4.5
		c-1.8,1.1-3.6,2.2-5.2,3.4c-3.9,3.3-6.7,5.8-8.3,7.5c-1,1-1.9,2-2.8,3c-1.9,2.6-3.5,4.8-4.7,6.6c-4,8.6-6.7,15.1-7.7,18.9
		c-1.4,5.2-2.1,10.4-2.1,15.5c0.1,10.4,2.8,20.9,8.3,30.6c4,7,9.1,12.9,14.9,17.7c2.4,1.9,5,3.7,7.8,5.3c9.4,5.5,19.7,8.2,29.9,8.3
		c5.3,0,10.6-0.7,15.9-2.2c1-0.3,2.2-0.6,3.5-1c3.6-1.3,8.4-3.4,14.2-6.1c2.1-1.3,4.8-3.3,8-5.7c5.2-4.4,9.7-9.8,13.4-16.1
		c1.1-1.9,2.7-5,4.6-9.1c0.6-1.7,1.2-3.5,1.7-5.3c0-0.1,0-0.2,0.1-0.2l0,0c2.7-10.1,0-38-5.4-71.9
		C160.4,311.3,138.9,308.7,125.2,308.7"/>
</g>
</svg>
